REM DIRINDEX 1\8,1\2\11,1\3\12,1\3\14,1\5\15,1\5\16,1\6\17,1\6\18,1\4\19,1\4\20,1\4\21,1\4\22,1\7\23,1\7\24,1\7\25,1\2\9\26,1\2\9\27,1\2\10\28,1\2\10\29,1\2\10\30,1\2\10\31,1\2\10\32,1\3\13\33,1\3\13\34,1\3\13\35
REM DIRNAME cjc123,folder01,folder02,folder03,folder04,folder05,folder06,folder07,folder08,folder09,folder10,folder11,folder12,folder13,folder14,folder15,folder16,folder17,folder18,folder19,folder20,folder21,folder22,folder23,folder24,folder25,folder26,folder27,folder28,folder29,folder30,folder31,folder32,folder33,folder34
TITLE ""
FILE "2-59 059_UNIT6_WARM-UP-40.mp3" MP3
  TRACK 01 AUDIO
    TITLE "11:cjc123_6028"
    INDEX 01 00:00:00
  TRACK 02 AUDIO
    TITLE "0:"
    INDEX 01 00:02:65
  TRACK 03 AUDIO
    TITLE "26:cjc123_6029"
    INDEX 01 00:03:49
  TRACK 04 AUDIO
    TITLE "0:"
    INDEX 01 00:04:62
  TRACK 05 AUDIO
    TITLE "27:cjc123_6030"
    INDEX 01 00:05:09
  TRACK 06 AUDIO
    TITLE "0:"
    INDEX 01 00:06:18
  TRACK 07 AUDIO
    TITLE "26:cjc123_6031"
    INDEX 01 00:06:65
  TRACK 08 AUDIO
    TITLE "0:"
    INDEX 01 00:07:56
  TRACK 09 AUDIO
    TITLE "27:cjc123_6032"
    INDEX 01 00:08:23
  TRACK 10 AUDIO
    TITLE "0:"
    INDEX 01 00:10:06
  TRACK 11 AUDIO
    TITLE "26:cjc123_6033"
    INDEX 01 00:10:55
  TRACK 12 AUDIO
    TITLE "0:"
    INDEX 01 00:11:62
  TRACK 13 AUDIO
    TITLE "27:cjc123_6034"
    INDEX 01 00:12:22
  TRACK 14 AUDIO
    TITLE "0:"
    INDEX 01 00:13:55
  TRACK 15 AUDIO
    TITLE "26:cjc123_6035"
    INDEX 01 00:14:29
  TRACK 16 AUDIO
    TITLE "0:"
    INDEX 01 00:15:34
  TRACK 17 AUDIO
    TITLE "27:cjc123_6036"
    INDEX 01 00:15:56
  TRACK 18 AUDIO
    TITLE "0:"
    INDEX 01 00:16:59
  TRACK 19 AUDIO
    TITLE "26:cjc123_6037"
    INDEX 01 00:17:29
  TRACK 20 AUDIO
    TITLE "0:"
    INDEX 01 00:18:48
  TRACK 21 AUDIO
    TITLE "27:cjc123_6038"
    INDEX 01 00:18:72
  TRACK 22 AUDIO
    TITLE "0:"
    INDEX 01 00:20:26
  TRACK 23 AUDIO
    TITLE "26:cjc123_6039"
    INDEX 01 00:20:69
  TRACK 24 AUDIO
    TITLE "0:"
    INDEX 01 00:22:01
  TRACK 25 AUDIO
    TITLE "27:cjc123_6040"
    INDEX 01 00:22:21
  TRACK 26 AUDIO
    TITLE "0:"
    INDEX 01 00:23:65
  TRACK 27 AUDIO
    TITLE "26:cjc123_6041"
    INDEX 01 00:24:39
  TRACK 28 AUDIO
    TITLE "0:"
    INDEX 01 00:25:46
  TRACK 29 AUDIO
    TITLE "27:cjc123_6042"
    INDEX 01 00:25:68
  TRACK 30 AUDIO
    TITLE "0:"
    INDEX 01 00:27:16
  TRACK 31 AUDIO
    TITLE "26:cjc123_6043"
    INDEX 01 00:27:61
  TRACK 32 AUDIO
    TITLE "0:"
    INDEX 01 00:28:66
  TRACK 33 AUDIO
    TITLE "27:cjc123_6044"
    INDEX 01 00:29:19
  TRACK 34 AUDIO
    TITLE "0:"
    INDEX 01 00:30:69
  TRACK 35 AUDIO
    TITLE "26:cjc123_6045"
    INDEX 01 00:31:41
  TRACK 36 AUDIO
    TITLE "0:"
    INDEX 01 00:32:27
  TRACK 37 AUDIO
    TITLE "27:cjc123_6046"
    INDEX 01 00:32:56
  TRACK 38 AUDIO
    TITLE "0:"
    INDEX 01 00:34:10
  TRACK 39 AUDIO
    TITLE "26:cjc123_6047"
    INDEX 01 00:34:63
  TRACK 40 AUDIO
    TITLE "0:"
    INDEX 01 00:35:63
  TRACK 41 AUDIO
    TITLE "27:cjc123_6048"
    INDEX 01 00:36:11
  TRACK 42 AUDIO
    TITLE "0:"
    INDEX 01 00:37:38
  TRACK 43 AUDIO
    TITLE "26:cjc123_6049"
    INDEX 01 00:38:14
  TRACK 44 AUDIO
    TITLE "0:"
    INDEX 01 00:39:11
  TRACK 45 AUDIO
    TITLE "27:cjc123_6050"
    INDEX 01 00:39:39
  TRACK 46 AUDIO
    TITLE "0:"
    INDEX 01 00:40:46
  TRACK 47 AUDIO
    TITLE "26:cjc123_6051"
    INDEX 01 00:41:18
  TRACK 48 AUDIO
    TITLE "0:"
    INDEX 01 00:42:19
  TRACK 49 AUDIO
    TITLE "27:cjc123_6052"
    INDEX 01 00:42:37
  TRACK 50 AUDIO
    TITLE "0:"
    INDEX 01 00:43:46
  TRACK 51 AUDIO
    TITLE "26:cjc123_6053"
    INDEX 01 00:44:18
  TRACK 52 AUDIO
    TITLE "0:"
    INDEX 01 00:45:20
  TRACK 53 AUDIO
    TITLE "27:cjc123_6054"
    INDEX 01 00:45:41
  TRACK 54 AUDIO
    TITLE "0:"
    INDEX 01 00:47:01
  TRACK 55 AUDIO
    TITLE "26:cjc123_6055"
    INDEX 01 00:47:46
  TRACK 56 AUDIO
    TITLE "0:"
    INDEX 01 00:48:44
  TRACK 57 AUDIO
    TITLE "27:cjc123_6056"
    INDEX 01 00:48:67
  TRACK 58 AUDIO
    TITLE "0:"
    INDEX 01 00:50:07
  TRACK 59 AUDIO
    TITLE "26:cjc123_6057"
    INDEX 01 00:50:52
  TRACK 60 AUDIO
    TITLE "0:"
    INDEX 01 00:51:69
  TRACK 61 AUDIO
    TITLE "27:cjc123_6058"
    INDEX 01 00:52:12
  TRACK 62 AUDIO
    TITLE "0:"
    INDEX 01 00:53:11
  TRACK 63 AUDIO
    TITLE "26:cjc123_6059"
    INDEX 01 00:53:58
  TRACK 64 AUDIO
    TITLE "0:"
    INDEX 01 00:55:03
  TRACK 65 AUDIO
    TITLE "27:cjc123_6060"
    INDEX 01 00:55:36
  TRACK 66 AUDIO
    TITLE "0:"
    INDEX 01 00:56:67
  TRACK 67 AUDIO
    TITLE "26:cjc123_6061"
    INDEX 01 00:57:52
  TRACK 68 AUDIO
    TITLE "0:"
    INDEX 01 00:58:44
  TRACK 69 AUDIO
    TITLE "27:cjc123_6062"
    INDEX 01 00:58:66
  TRACK 70 AUDIO
    TITLE "0:"
    INDEX 01 00:59:65
  TRACK 71 AUDIO
    TITLE "26:cjc123_6063"
    INDEX 01 01:00:37
  TRACK 72 AUDIO
    TITLE "0:"
    INDEX 01 01:01:48
  TRACK 73 AUDIO
    TITLE "27:cjc123_6064"
    INDEX 01 01:01:72
  TRACK 74 AUDIO
    TITLE "0:"
    INDEX 01 01:02:59
  TRACK 75 AUDIO
    TITLE "26:cjc123_6065"
    INDEX 01 01:03:31
  TRACK 76 AUDIO
    TITLE "0:"
    INDEX 01 01:04:27
  TRACK 77 AUDIO
    TITLE "27:cjc123_6066"
    INDEX 01 01:04:64
  TRACK 78 AUDIO
    TITLE "0:"
    INDEX 01 01:05:56
  TRACK 79 AUDIO
    TITLE "26:cjc123_6067"
    INDEX 01 01:06:40
  TRACK 80 AUDIO
    TITLE "0:"
    INDEX 01 01:07:31
  TRACK 81 AUDIO
    TITLE "27:cjc123_6068"
    INDEX 01 01:07:72
  TRACK 82 AUDIO
    TITLE "0:"
    INDEX 01 01:09:12
  TRACK 83 AUDIO
    TITLE "26:cjc123_6069"
    INDEX 01 01:09:67
  TRACK 84 AUDIO
    TITLE "0:"
    INDEX 01 01:11:13
  TRACK 85 AUDIO
    TITLE "27:cjc123_6070"
    INDEX 01 01:11:35
  TRACK 86 AUDIO
    TITLE "0:"
    INDEX 01 01:13:10
  TRACK 87 AUDIO
    TITLE "26:cjc123_6071"
    INDEX 01 01:13:69
  TRACK 88 AUDIO
    TITLE "0:"
    INDEX 01 01:14:70
  TRACK 89 AUDIO
    TITLE "27:cjc123_6072"
    INDEX 01 01:15:17
  TRACK 90 AUDIO
    TITLE "0:"
    INDEX 01 01:16:14
  TRACK 91 AUDIO
    TITLE "26:cjc123_6073"
    INDEX 01 01:16:61
  TRACK 92 AUDIO
    TITLE "0:"
    INDEX 01 01:17:73
  TRACK 93 AUDIO
    TITLE "27:cjc123_6074"
    INDEX 01 01:18:33
  TRACK 94 AUDIO
    TITLE "0:"
    INDEX 01 01:19:62
  TRACK 95 AUDIO
    TITLE "26:cjc123_6075"
    INDEX 01 01:20:38
  TRACK 96 AUDIO
    TITLE "0:"
    INDEX 01 01:21:41
  TRACK 97 AUDIO
    TITLE "27:cjc123_6076"
    INDEX 01 01:21:59
  TRACK 98 AUDIO
    TITLE "0:"
    INDEX 01 01:22:72
  TRACK 99 AUDIO
    TITLE "26:cjc123_6077"
    INDEX 01 01:23:52
  TRACK 100 AUDIO
    TITLE "0:"
    INDEX 01 01:24:57
  TRACK 101 AUDIO
    TITLE "27:cjc123_6078"
    INDEX 01 01:25:02
  TRACK 102 AUDIO
    TITLE "0:"
    INDEX 01 01:25:74
  TRACK 103 AUDIO
    TITLE "26:cjc123_6079"
    INDEX 01 01:26:48
  TRACK 104 AUDIO
    TITLE "0:"
    INDEX 01 01:27:38
  TRACK 105 AUDIO
    TITLE "27:cjc123_6080"
    INDEX 01 01:27:71
  TRACK 106 AUDIO
    TITLE "0:"
    INDEX 01 01:28:72
  TRACK 107 AUDIO
    TITLE "26:cjc123_6081"
    INDEX 01 01:29:41
  TRACK 108 AUDIO
    TITLE "0:"
    INDEX 01 01:30:50
  TRACK 109 AUDIO
    TITLE "27:cjc123_6082"
    INDEX 01 01:31:02
  TRACK 110 AUDIO
    TITLE "0:"
    INDEX 01 01:32:12
  TRACK 111 AUDIO
    TITLE "26:cjc123_6083"
    INDEX 01 01:32:53
  TRACK 112 AUDIO
    TITLE "0:"
    INDEX 01 01:33:52
  TRACK 113 AUDIO
    TITLE "27:cjc123_6084"
    INDEX 01 01:34:01
  TRACK 114 AUDIO
    TITLE "0:"
    INDEX 01 01:35:10
  TRACK 115 AUDIO
    TITLE "26:cjc123_6085"
    INDEX 01 01:35:67
  TRACK 116 AUDIO
    TITLE "0:"
    INDEX 01 01:36:64
  TRACK 117 AUDIO
    TITLE "27:cjc123_6086"
    INDEX 01 01:37:21
  TRACK 118 AUDIO
    TITLE "0:"
    INDEX 01 01:38:20
  TRACK 119 AUDIO
    TITLE "26:cjc123_6087"
    INDEX 01 01:38:51
  TRACK 120 AUDIO
    TITLE "0:"
    INDEX 01 01:39:47
  TRACK 121 AUDIO
    TITLE "27:cjc123_6088"
    INDEX 01 01:39:70
  TRACK 122 AUDIO
    TITLE "0:"
    INDEX 01 01:40:54
  TRACK 123 AUDIO
    TITLE "26:cjc123_6089"
    INDEX 01 01:41:28
  TRACK 124 AUDIO
    TITLE "0:"
    INDEX 01 01:42:30
  TRACK 125 AUDIO
    TITLE "27:cjc123_6090"
    INDEX 01 01:42:57
  TRACK 126 AUDIO
    TITLE "0:"
    INDEX 01 01:44:15
  TRACK 127 AUDIO
    TITLE "26:cjc123_6091"
    INDEX 01 01:44:62
  TRACK 128 AUDIO
    TITLE "0:"
    INDEX 01 01:45:49
  TRACK 129 AUDIO
    TITLE "27:cjc123_6092"
    INDEX 01 01:46:06
  TRACK 130 AUDIO
    TITLE "0:"
    INDEX 01 01:47:19
  TRACK 131 AUDIO
    TITLE "26:cjc123_6093"
    INDEX 01 01:48:01
  TRACK 132 AUDIO
    TITLE "0:"
    INDEX 01 01:49:04
  TRACK 133 AUDIO
    TITLE "27:cjc123_6094"
    INDEX 01 01:49:24
  TRACK 134 AUDIO
    TITLE "0:"
    INDEX 01 01:50:43
  TRACK 135 AUDIO
    TITLE "26:cjc123_6095"
    INDEX 01 01:51:19
  TRACK 136 AUDIO
    TITLE "0:"
    INDEX 01 01:52:24
  TRACK 137 AUDIO
    TITLE "27:cjc123_6096"
    INDEX 01 01:52:42
  TRACK 138 AUDIO
    TITLE "0:"
    INDEX 01 01:53:55
  TRACK 139 AUDIO
    TITLE "26:cjc123_6097"
    INDEX 01 01:54:35
  TRACK 140 AUDIO
    TITLE "0:"
    INDEX 01 01:55:42
  TRACK 141 AUDIO
    TITLE "27:cjc123_6098"
    INDEX 01 01:55:62
  TRACK 142 AUDIO
    TITLE "0:"
    INDEX 01 01:57:00
  TRACK 143 AUDIO
    TITLE "26:cjc123_6099"
    INDEX 01 01:57:51
  TRACK 144 AUDIO
    TITLE "0:"
    INDEX 01 01:58:72
  TRACK 145 AUDIO
    TITLE "27:cjc123_6100"
    INDEX 01 01:59:18
  TRACK 146 AUDIO
    TITLE "0:"
    INDEX 01 02:00:31
  TRACK 147 AUDIO
    TITLE "26:cjc123_6101"
    INDEX 01 02:01:01
  TRACK 148 AUDIO
    TITLE "0:"
    INDEX 01 02:02:20
  TRACK 149 AUDIO
    TITLE "27:cjc123_6102"
    INDEX 01 02:02:38
  TRACK 150 AUDIO
    TITLE "0:"
    INDEX 01 02:03:57
  TRACK 151 AUDIO
    TITLE "26:cjc123_6103"
    INDEX 01 02:04:41
  TRACK 152 AUDIO
    TITLE "0:"
    INDEX 01 02:05:34
  TRACK 153 AUDIO
    TITLE "27:cjc123_6104"
    INDEX 01 02:05:52
  TRACK 154 AUDIO
    TITLE "0:"
    INDEX 01 02:07:04
  TRACK 155 AUDIO
    TITLE "26:cjc123_6105"
    INDEX 01 02:07:49
  TRACK 156 AUDIO
    TITLE "0:"
    INDEX 01 02:08:60
  TRACK 157 AUDIO
    TITLE "27:cjc123_6106"
    INDEX 01 02:09:09
  TRACK 158 AUDIO
    TITLE "0:"
    INDEX 01 02:10:10
  TRACK 159 AUDIO
    TITLE "26:cjc123_6107"
    INDEX 01 02:10:55
  TRACK 160 AUDIO
    TITLE "0:"
    INDEX 01 02:12:11
  TRACK 161 AUDIO
    TITLE "27:cjc123_6108"
    INDEX 01 02:12:36
  TRACK 162 AUDIO
    TITLE "0:"
    INDEX 01 02:13:65
